Coordinates
version=1
nRows=28
nColumns=23
inDegrees=yes

Units are S.I. units (second, meters, Newtons, ...)
If the header above contains a line with 'inDegrees', this indicates whether rotational values are in degrees (yes) or radians (no).

endheader
time	pelvis_tilt	pelvis_list	pelvis_rotation	pelvis_tx	pelvis_ty	pelvis_tz	hip_flexion_r	hip_adduction_r	hip_rotation_r	knee_angle_r	knee_angle_r_beta	ankle_angle_r	subtalar_angle_r	mtp_angle_r	hip_flexion_l	hip_adduction_l	hip_rotation_l	knee_angle_l	knee_angle_l_beta	ankle_angle_l	subtalar_angle_l	mtp_angle_l
      0.00000000	      0.01800380	     -7.98952612	     -7.61765319	      2.11629172	      0.83220302	      1.01455043	     28.24851412	     13.59152733	     -7.50619433	     53.34819980	      0.93110174	     19.20480495	    -11.79926860	      0.00000000	     -5.76111008	     -9.46839250	    -10.03952809	     84.63145997	      1.47709763	     -7.32617119	    -17.95202263	      0.00000000
      0.00666667	      0.51903781	     -8.26705256	     -7.78126838	      2.11441333	      0.83088247	      1.01480421	     26.82675633	     13.93284138	     -7.00244964	     54.07984764	      0.94387140	     20.50224554	    -11.81895899	      0.00000000	     -4.30159493	    -10.06803023	     -9.50884605	     86.69795962	      1.51316485	     -6.45638021	    -18.37236773	      0.00000000
      0.01333333	      0.42177150	     -8.35992347	     -7.85422964	      2.11251639	      0.82867176	      1.01494021	     26.12844449	     13.97034235	     -6.83292817	     54.93017038	      0.95871233	     21.91953998	    -11.27055674	      0.00000000	     -2.02779304	    -10.55444965	     -8.73311219	     88.87223488	      1.55111311	     -5.36630809	    -18.18025890	      0.00000000
      0.02000000	      0.34463108	     -8.23310837	     -7.99206282	      2.11052433	      0.82660444	      1.01505681	     25.42016981	     13.78825405	     -6.53148866	     55.79856008	      0.97386859	     23.37721613	    -10.62779480	      0.00000000	      0.23404768	    -10.67745590	     -7.93473093	     90.81323893	      1.58499002	     -4.44823207	    -18.25058715	      0.00000000
      0.02666667	      0.36013526	     -8.25769304	     -8.00675614	      2.10868951	      0.82506764	      1.01512423	     24.45354196	     13.71345097	     -6.34334570	     56.35372743	      0.98355809	     24.54127414	    -10.21293965	      0.00000000	      2.37980082	    -10.96054092	     -7.02496575	     92.55094715	      1.61531875	     -3.58399046	    -18.14585732	      0.00000000
      0.03333333	      0.49408093	     -8.27991565	     -8.01164209	      2.10689929	      0.82415470	      1.01525579	     23.24863427	     13.68135742	     -6.02404550	     56.68166102	      0.98928161	     25.53318069	     -9.96717140	      0.00000000	      4.37206894	    -11.15942373	     -6.07787382	     94.00890453	      1.64076491	     -2.82597741	    -18.05351761	      0.00000000
      0.04000000	      0.56691672	     -8.22591619	     -8.02477439	      2.10518212	      0.82363421	      1.01545964	     22.02432796	     13.54303798	     -5.73993194	     56.84511703	      0.99213446	     26.37116130	     -9.69699700	      0.00000000	      6.42031777	    -11.25950222	     -5.14633777	     95.21890100	      1.66188333	     -2.06343455	    -17.81892848	      0.00000000
      0.04666667	      0.32679669	     -8.02699191	     -7.96748208	      2.10352590	      0.82322643	      1.01561098	     21.12327866	     13.16924091	     -5.68621638	     56.93738375	      0.99374481	     26.96333651	     -8.94566093	      0.00000000	      8.89090683	    -11.19119488	     -4.12326098	     96.23315668	      1.67958543	     -1.20075715	    -17.06435540	      0.00000000
      0.05333333	      0.26952239	     -7.83000892	     -7.96830327	      2.10201265	      0.82361460	      1.01589507	     19.89561933	     12.85249390	     -5.45217091	     56.79306059	      0.99122590	     27.43563234	     -8.51481091	      0.00000000	     11.04165293	    -11.07243900	     -3.24163860	     96.88844761	      1.69102242	     -0.46223554	    -16.64310235	      0.00000000
      0.06000000	      0.33335567	     -7.54449292	     -8.12913517	      2.10053751	      0.82476575	      1.01647843	     18.44768198	     12.57183932	     -4.85925860	     56.46460033	      0.98549319	     27.66435513	     -8.25279046	      0.00000000	     12.91816727	    -10.87574344	     -2.65306919	     97.15357157	      1.69564970	      0.01920252	    -16.47222990	      0.00000000
      0.06666667	      0.15650740	     -7.34223345	     -7.97464120	      2.09942988	      0.82608112	      1.01666339	     17.17481929	     12.16205248	     -4.86583106	     55.94075670	      0.97635039	     27.82928032	     -7.75333658	      0.00000000	     15.13755479	    -10.68315380	     -1.73007672	     97.29647001	      1.69814375	      0.94940613	    -15.82888080	      0.00000000
      0.07333333	      0.04750152	     -7.04720903	     -7.96557467	      2.09850454	      0.82796948	      1.01698459	     15.76396255	     11.69361947	     -4.68042205	     55.29807156	      0.96513342	     27.86704736	     -7.19452292	      0.00000000	     17.11563687	    -10.40120688	     -1.12296622	     97.09013305	      1.69454249	      1.70956302	    -15.45086524	      0.00000000
      0.08000000	     -0.02669530	     -6.70979713	     -7.94782984	      2.09782796	      0.83046913	      1.01729055	     14.23188425	     11.17032562	     -4.47810912	     54.46990820	      0.95067924	     27.77546330	     -6.57848456	      0.00000000	     18.94126017	    -10.04575077	     -0.63626002	     96.56305193	      1.68534319	      2.37154642	    -15.25817195	      0.00000000
      0.08666667	     -0.28430952	     -6.25437285	     -8.19342282	      2.09725120	      0.83323953	      1.01806052	     12.88912347	     10.67062373	     -3.91542403	     53.58419912	      0.93522070	     27.58061516	     -6.24027599	      0.00000000	     20.77766178	     -9.73636892	     -0.57032904	     95.70937842	      1.67044378	      2.84422472	    -15.24900545	      0.00000000
      0.09333333	     -0.06244191	     -5.94907832	     -7.86114602	      2.09742317	      0.83706600	      1.01774276	     10.80986960	      9.94336835	     -4.14597970	     52.27576496	      0.91238422	     27.14169836	     -5.24013892	      0.00000000	     22.06276849	     -9.13569442	      0.00902382	     94.60116984	      1.65110189	      3.49591391	    -15.48866532	      0.00000000
      0.10000000	     -0.04712608	     -5.50594173	     -7.79941407	      2.09770120	      0.84105399	      1.01787188	      8.96814624	      9.21338703	     -4.04100730	     50.93608041	      0.88900231	     26.52495527	     -4.50718857	      0.00000000	     23.36989548	     -8.55094325	      0.17099390	     93.19986630	      1.62664453	      3.96689418	    -15.85245949	      0.00000000
      0.10666667	     -0.07936617	     -5.01726384	     -7.69212016	      2.09828774	      0.84536551	      1.01789878	      7.12734194	      8.41240096	     -4.02618657	     49.43259399	      0.86276152	     25.62976098	     -3.86464191	      0.00000000	     24.60445434	     -7.87994087	      0.27774692	     91.55056173	      1.59785873	      4.39335229	    -16.30316566	      0.00000000
      0.11333333	     -0.05612634	     -4.51473918	     -7.53586022	      2.09922630	      0.85012855	      1.01787038	      5.15785912	      7.56090569	     -4.13100433	     47.73912753	      0.83320496	     24.47333904	     -3.10740308	      0.00000000	     25.62010054	     -7.14168974	      0.34413121	     89.62777985	      1.56429986	      4.68183286	    -16.78662617	      0.00000000
      0.12000000	      0.00404006	     -4.00776979	     -7.35876357	      2.10045125	      0.85518973	      1.01781757	      3.09995162	      6.67531418	     -4.35748658	     45.88952537	      0.80092331	     23.04646395	     -2.24317446	      0.00000000	     26.43899946	     -6.36945343	      0.36176820	     87.46854909	      1.52661417	      4.95685851	    -17.30049992	      0.00000000
      0.12666667	     -0.30368635	     -3.37171957	     -7.28251223	      2.10173580	      0.85996122	      1.01792434	      1.53855722	      5.69545190	     -4.60921163	     44.11633220	      0.76997525	     21.17172833	     -1.58098814	      0.00000000	     27.55030030	     -5.55578403	      0.21245682	     85.13940779	      1.48596299	      5.25424939	    -17.52910357	      0.00000000
      0.13333333	      0.05018425	     -2.89633809	     -6.84684576	      2.10377790	      0.86581812	      1.01761437	     -1.01972008	      4.81173314	     -5.24791696	     41.81941559	      0.72988649	     19.24497760	     -0.61737561	      0.00000000	     27.73975766	     -4.58927587	      0.40412611	     82.48935677	      1.43971087	      5.31214482	    -18.13394676	      0.00000000
      0.14000000	     -0.00450842	     -2.30904125	     -6.51041460	      2.10578699	      0.87116520	      1.01746708	     -3.00935709	      3.88109329	     -5.92276944	     39.66248588	      0.69224097	     16.91411758	      0.15480334	      0.00000000	     28.28094318	     -3.60373384	      0.47268483	     79.70904603	      1.39118530	      5.43328344	    -18.34997589	      0.00000000
      0.14666667	     -0.05306277	     -1.75518985	     -6.16445887	      2.10798282	      0.87652734	      1.01741204	     -5.01402836	      3.02995480	     -6.68199020	     37.43877863	      0.65342996	     14.33937846	      0.94589609	      0.00000000	     28.67495015	     -2.66439055	      0.52752560	     76.74212484	      1.33940275	      5.49058782	    -18.46807998	      0.00000000
      0.15333333	     -0.15674432	     -1.22189986	     -5.80861567	      2.11028677	      0.88177649	      1.01741004	     -6.91881202	      2.26797398	     -7.46827242	     35.21966336	      0.61469909	     11.56245411	      1.70328741	      0.00000000	     29.00324555	     -1.73596679	      0.61152879	     73.61942638	      1.28490138	      5.50981858	    -18.43317178	      0.00000000
      0.16000000	     -0.27486771	     -0.75570908	     -5.49965494	      2.11265358	      0.88690027	      1.01759249	     -8.76880979	      1.64031625	     -8.19102808	     33.01590963	      0.57623633	      8.58274299	      2.36568000	      0.00000000	     29.22100210	     -0.94891442	      0.62287164	     70.34620791	      1.22777294	      5.44778591	    -18.28124352	      0.00000000
      0.16666667	     -0.53943238	     -0.31952911	     -5.13373581	      2.11506630	      0.89164176	      1.01772208	    -10.37891086	      1.09985968	     -8.98465869	     30.93082442	      0.53984473	      5.50913654	      2.91705970	      0.00000000	     29.51481220	     -0.16304955	      0.71473212	     66.96942329	      1.16883693	      5.40188260	    -17.92827706	      0.00000000
      0.17333333	     -0.98728870	      0.08028458	     -4.84870496	      2.11740157	      0.89592246	      1.01800529	    -11.62862061	      0.62659497	     -9.67397870	     29.11088032	      0.50808071	      2.35285681	      3.43179172	      0.00000000	     29.91780516	      0.49034064	      0.68949514	     63.49337292	      1.10816841	      5.27983431	    -17.38183657	      0.00000000
      0.18000000	     -1.29484462	      0.34607570	     -4.53197714	      2.11984287	      0.90014045	      1.01830973	    -13.01706215	      0.33345069	    -10.31191264	     27.28454622	      0.47620517	     -0.74470701	      3.77145580	      0.00000000	     30.05359177	      1.02752512	      0.71819796	     59.91804720	      1.04576720	      5.13287058	    -16.79971243	      0.00000000
